<?xml version="1.0" encoding="utf-8"?>
<!-- Generator: Adobe Illustrator 24.3.0, SVG Export Plug-In . SVG Version: 6.00 Build 0)  -->
<svg version="1.1" xmlns="http://www.w3.org/2000/svg" xmlns:xlink="http://www.w3.org/1999/xlink" x="0px" y="0px"
	 viewBox="0 0 1920 1080" style="enable-background:new 0 0 1920 1080;" xml:space="preserve">
<style type="text/css">
	.st0{display:none;}
	.st1{display:inline;}
	.st2{fill:#2D2C4E;}
	.st3{opacity:0.16;fill:#FFFFFF;}
	.st4{opacity:0.16;fill:none;stroke:#FFFFFF;stroke-width:2;stroke-miterlimit:10;}
	.st5{opacity:0.2;fill:#FFFFFF;}
	.st6{opacity:0.2;fill:none;stroke:#FFFFFF;stroke-width:2;stroke-miterlimit:10;}
	.st7{opacity:0.22;fill:none;stroke:#FFFFFF;stroke-width:2;stroke-miterlimit:10;}
	.st8{fill:none;stroke:#F2CA51;stroke-width:2;stroke-miterlimit:10;}
	.st9{opacity:0.8;fill:none;stroke:#FFFFFF;stroke-width:2;stroke-miterlimit:10;}
	.st10{opacity:0.5;fill:none;stroke:#FFFFFF;stroke-width:2;stroke-miterlimit:10;}
	.st11{opacity:0.12;fill:none;stroke:#FFFFFF;stroke-width:2;stroke-miterlimit:10;}
	.st12{opacity:0.12;fill:#FFFFFF;}
	.st13{opacity:0.1;fill:#FFFFFF;}
	.st14{opacity:0.1;fill:none;stroke:#FFFFFF;stroke-width:2;stroke-miterlimit:10;}
	.st15{fill:#FFFFFF;}
	.st16{opacity:0.12;}
	.st17{fill:#E84C62;}
	.st18{opacity:0.88;}
	.st19{opacity:0.22;}
</style>
<g id="Layer_1" class="st0">
	<g class="st1">
		<rect class="st2" width="1920" height="1080"/>
	</g>
</g>
<g id="Layer_2">
	<path class="st3" d="M342.2,252h-23.3c-2.7,0-4.8-2.2-4.8-4.8v-14.3c0-2.7,2.2-4.8,4.8-4.8h23.3c2.7,0,4.8,2.2,4.8,4.8v14.3
		C347,249.8,344.8,252,342.2,252z"/>
	<path class="st4" d="M393.2,252h-23.3c-2.7,0-4.8-2.2-4.8-4.8v-14.3c0-2.7,2.2-4.8,4.8-4.8h23.3c2.7,0,4.8,2.2,4.8,4.8v14.3
		C398,249.8,395.8,252,393.2,252z"/>
	<path class="st4" d="M440.2,252h-23.3c-2.7,0-4.8-2.2-4.8-4.8v-14.3c0-2.7,2.2-4.8,4.8-4.8h23.3c2.7,0,4.8,2.2,4.8,4.8v14.3
		C445,249.8,442.8,252,440.2,252z"/>
	<path class="st4" d="M342.2,292h-23.3c-2.7,0-4.8-2.2-4.8-4.8v-14.3c0-2.7,2.2-4.8,4.8-4.8h23.3c2.7,0,4.8,2.2,4.8,4.8v14.3
		C347,289.8,344.8,292,342.2,292z"/>
	<path class="st4" d="M393.2,292h-23.3c-2.7,0-4.8-2.2-4.8-4.8v-14.3c0-2.7,2.2-4.8,4.8-4.8h23.3c2.7,0,4.8,2.2,4.8,4.8v14.3
		C398,289.8,395.8,292,393.2,292z"/>
	<path class="st4" d="M440.2,292h-23.3c-2.7,0-4.8-2.2-4.8-4.8v-14.3c0-2.7,2.2-4.8,4.8-4.8h23.3c2.7,0,4.8,2.2,4.8,4.8v14.3
		C445,289.8,442.8,292,440.2,292z"/>
	<path class="st5" d="M1677.2,600h-23.3c-2.7,0-4.8-2.2-4.8-4.8v-14.3c0-2.7,2.2-4.8,4.8-4.8h23.3c2.7,0,4.8,2.2,4.8,4.8v14.3
		C1682,597.8,1679.8,600,1677.2,600z"/>
	<path class="st6" d="M1728.2,600h-23.3c-2.7,0-4.8-2.2-4.8-4.8v-14.3c0-2.7,2.2-4.8,4.8-4.8h23.3c2.7,0,4.8,2.2,4.8,4.8v14.3
		C1733,597.8,1730.8,600,1728.2,600z"/>
	<path class="st6" d="M1775.2,600h-23.3c-2.7,0-4.8-2.2-4.8-4.8v-14.3c0-2.7,2.2-4.8,4.8-4.8h23.3c2.7,0,4.8,2.2,4.8,4.8v14.3
		C1780,597.8,1777.8,600,1775.2,600z"/>
	<path class="st7" d="M1677.2,171h-23.3c-2.7,0-4.8-2.2-4.8-4.8v-14.3c0-2.7,2.2-4.8,4.8-4.8h23.3c2.7,0,4.8,2.2,4.8,4.8v14.3
		C1682,168.8,1679.8,171,1677.2,171z"/>
	<path class="st8" d="M1724.2,203h-23.3c-2.7,0-4.8-2.2-4.8-4.8v-14.3c0-2.7,2.2-4.8,4.8-4.8h23.3c2.7,0,4.8,2.2,4.8,4.8v14.3
		C1729,200.8,1726.8,203,1724.2,203z"/>
	<path class="st8" d="M334.2,243h-23.3c-2.7,0-4.8-2.2-4.8-4.8v-14.3c0-2.7,2.2-4.8,4.8-4.8h23.3c2.7,0,4.8,2.2,4.8,4.8v14.3
		C339,240.8,336.8,243,334.2,243z"/>
	<path class="st8" d="M136.2,699h-23.3c-2.7,0-4.8-2.2-4.8-4.8v-14.3c0-2.7,2.2-4.8,4.8-4.8h23.3c2.7,0,4.8,2.2,4.8,4.8v14.3
		C141,696.8,138.8,699,136.2,699z"/>
	<path class="st9" d="M1661.2,937h-23.3c-2.7,0-4.8-2.2-4.8-4.8v-14.3c0-2.7,2.2-4.8,4.8-4.8h23.3c2.7,0,4.8,2.2,4.8,4.8v14.3
		C1666,934.8,1663.8,937,1661.2,937z"/>
	<path class="st10" d="M144.2,687h-23.3c-2.7,0-4.8-2.2-4.8-4.8v-14.3c0-2.7,2.2-4.8,4.8-4.8h23.3c2.7,0,4.8,2.2,4.8,4.8v14.3
		C149,684.8,146.8,687,144.2,687z"/>
	<path class="st11" d="M210.2,217h-23.3c-2.7,0-4.8-2.2-4.8-4.8v-14.3c0-2.7,2.2-4.8,4.8-4.8h23.3c2.7,0,4.8,2.2,4.8,4.8v14.3
		C215,214.8,212.8,217,210.2,217z"/>
	<path class="st12" d="M260.2,804h-23.3c-2.7,0-4.8-2.2-4.8-4.8v-14.3c0-2.7,2.2-4.8,4.8-4.8h23.3c2.7,0,4.8,2.2,4.8,4.8v14.3
		C265,801.8,262.8,804,260.2,804z"/>
	<path class="st6" d="M1677.2,640h-23.3c-2.7,0-4.8-2.2-4.8-4.8v-14.3c0-2.7,2.2-4.8,4.8-4.8h23.3c2.7,0,4.8,2.2,4.8,4.8v14.3
		C1682,637.8,1679.8,640,1677.2,640z"/>
	<path class="st6" d="M1728.2,640h-23.3c-2.7,0-4.8-2.2-4.8-4.8v-14.3c0-2.7,2.2-4.8,4.8-4.8h23.3c2.7,0,4.8,2.2,4.8,4.8v14.3
		C1733,637.8,1730.8,640,1728.2,640z"/>
	<path class="st6" d="M1775.2,640h-23.3c-2.7,0-4.8-2.2-4.8-4.8v-14.3c0-2.7,2.2-4.8,4.8-4.8h23.3c2.7,0,4.8,2.2,4.8,4.8v14.3
		C1780,637.8,1777.8,640,1775.2,640z"/>
	<path class="st13" d="M1496,830.5h-17.1c-2.7,0-4.8-2.2-4.8-4.8v-9.8c0-2.7,2.2-4.8,4.8-4.8h17.1c2.7,0,4.8,2.2,4.8,4.8v9.8
		C1500.8,828.3,1498.6,830.5,1496,830.5z"/>
	<path class="st13" d="M1537.4,830.5h-17.1c-2.7,0-4.8-2.2-4.8-4.8v-9.8c0-2.7,2.2-4.8,4.8-4.8h17.1c2.7,0,4.8,2.2,4.8,4.8v9.8
		C1542.3,828.3,1540.1,830.5,1537.4,830.5z"/>
	<path class="st14" d="M1575.6,830.5h-17.1c-2.7,0-4.8-2.2-4.8-4.8v-9.8c0-2.7,2.2-4.8,4.8-4.8h17.1c2.7,0,4.8,2.2,4.8,4.8v9.8
		C1580.4,828.3,1578.3,830.5,1575.6,830.5z"/>
	<path class="st14" d="M1496,863h-17.1c-2.7,0-4.8-2.2-4.8-4.8v-9.8c0-2.7,2.2-4.8,4.8-4.8h17.1c2.7,0,4.8,2.2,4.8,4.8v9.8
		C1500.8,860.8,1498.6,863,1496,863z"/>
	<path class="st14" d="M1537.4,863h-17.1c-2.7,0-4.8-2.2-4.8-4.8v-9.8c0-2.7,2.2-4.8,4.8-4.8h17.1c2.7,0,4.8,2.2,4.8,4.8v9.8
		C1542.3,860.8,1540.1,863,1537.4,863z"/>
	<path class="st14" d="M1575.6,863h-17.1c-2.7,0-4.8-2.2-4.8-4.8v-9.8c0-2.7,2.2-4.8,4.8-4.8h17.1c2.7,0,4.8,2.2,4.8,4.8v9.8
		C1580.4,860.8,1578.3,863,1575.6,863z"/>
	<g>
		<g>
			<g>
				<path class="st15" d="M1573.8,228c11.1,0,20.2-9.1,20.2-20.2c0-11.1-9.1-20.2-20.2-20.2s-20.2,9.1-20.2,20.2
					C1553.6,218.9,1562.7,228,1573.8,228z M1573.8,190.3c9.7,0,17.5,7.8,17.5,17.5s-7.8,17.5-17.5,17.5s-17.5-7.8-17.5-17.5
					S1564.2,190.3,1573.8,190.3L1573.8,190.3z"/>
				<path class="st15" d="M1579.7,214.2c0.2,0.2,0.5,0.3,0.8,0.3c0.4,0,0.8-0.2,1.1-0.5c0.5-0.6,0.4-1.4-0.2-1.9l-6.4-5V197
					c0.2-0.7-0.4-1.3-1.2-1.3c-0.7,0-1.3,0.6-1.8,1.3v10.8c0.5,0.4,0.7,0.8,1,1.1L1579.7,214.2z"/>
			</g>
		</g>
	</g>
	<g>
		<g>
			<g>
				<path class="st15" d="M188.8,861.5c7.8,0,14.2-6.4,14.2-14.2s-6.4-14.2-14.2-14.2s-14.2,6.4-14.2,14.2S181,861.5,188.8,861.5z
					 M188.8,835c6.8,0,12.3,5.5,12.3,12.3s-5.5,12.3-12.3,12.3s-12.3-5.5-12.3-12.3S182,835,188.8,835L188.8,835z"/>
				<path class="st15" d="M193,851.8c0.2,0.1,0.4,0.2,0.6,0.2c0.3,0,0.6-0.1,0.7-0.4c0.3-0.4,0.3-1-0.1-1.3l-4.5-3.5v-7.1
					c0.1-0.5-0.3-0.9-0.8-0.9s-0.9,0.4-1.3,0.9v7.6c0.3,0.3,0.5,0.6,0.7,0.7L193,851.8z"/>
			</g>
		</g>
	</g>
	<g class="st16">
		<g>
			<g>
				<path class="st15" d="M313.8,138.5c7.8,0,14.2-6.4,14.2-14.2s-6.4-14.2-14.2-14.2s-14.2,6.4-14.2,14.2S306,138.5,313.8,138.5z
					 M313.8,112c6.8,0,12.3,5.5,12.3,12.3c0,6.8-5.5,12.3-12.3,12.3s-12.3-5.5-12.3-12.3C301.5,117.5,307,112,313.8,112L313.8,112z"
					/>
				<path class="st15" d="M318,128.8c0.2,0.1,0.4,0.2,0.6,0.2c0.3,0,0.6-0.1,0.7-0.4c0.3-0.4,0.3-1-0.1-1.3l-4.5-3.5v-7.1
					c0.1-0.5-0.3-0.9-0.8-0.9s-0.9,0.4-1.3,0.9v7.6c0.3,0.3,0.5,0.6,0.7,0.7L318,128.8z"/>
			</g>
		</g>
	</g>
	<g class="st16">
		<g>
			<g>
				<path class="st15" d="M1686.1,780c16.8,0,30.4-13.7,30.4-30.4c0-16.8-13.7-30.4-30.4-30.4c-16.8,0-30.4,13.7-30.4,30.4
					C1655.6,766.3,1669.3,780,1686.1,780z M1686.1,723.2c14.6,0,26.4,11.8,26.4,26.4c0,14.6-11.8,26.4-26.4,26.4
					c-14.6,0-26.4-11.8-26.4-26.4C1659.7,735,1671.5,723.2,1686.1,723.2L1686.1,723.2z"/>
				<path class="st15" d="M1695,759.3c0.4,0.3,0.8,0.4,1.3,0.4c0.6,0,1.2-0.3,1.6-0.8c0.7-0.9,0.6-2.2-0.3-2.9l-9.6-7.5v-15.3
					c0.3-1.1-0.7-2-1.8-2s-2,0.9-2.7,2v16.2c0.7,0.6,1,1.2,1.5,1.6L1695,759.3z"/>
			</g>
		</g>
	</g>
	<circle class="st17" cx="148.5" cy="308.5" r="8.5"/>
	<circle class="st17" cx="1803.5" cy="478.5" r="4.5"/>
	<circle class="st17" cx="424.5" cy="867.5" r="4.5"/>
	<g id="_03_Login" class="st18">
		<path class="st15" d="M1766.3,460.1c-0.5,0-0.9-0.4-0.9-0.9v-15.8c0-0.5,0.4-0.9,0.9-0.9s0.9,0.4,0.9,0.9v15.8
			C1767.1,459.7,1766.7,460.1,1766.3,460.1z"/>
		<path class="st15" d="M1774.1,452.2h-15.8c-0.5,0-0.9-0.4-0.9-0.9c0-0.5,0.4-0.9,0.9-0.9h15.8c0.5,0,0.9,0.4,0.9,0.9
			C1775,451.9,1774.6,452.2,1774.1,452.2z"/>
	</g>
	<g id="_03_Login_4_" class="st18">
		<path class="st15" d="M1682.3,954.1c-0.5,0-0.9-0.4-0.9-0.9v-15.8c0-0.5,0.4-0.9,0.9-0.9s0.9,0.4,0.9,0.9v15.8
			C1683.1,953.7,1682.7,954.1,1682.3,954.1z"/>
		<path class="st15" d="M1690.1,946.2h-15.8c-0.5,0-0.9-0.4-0.9-0.9c0-0.5,0.4-0.9,0.9-0.9h15.8c0.5,0,0.9,0.4,0.9,0.9
			C1691,945.9,1690.6,946.2,1690.1,946.2z"/>
	</g>
	<g id="_03_Login_3_" class="st18">
		<path class="st15" d="M99.3,813.1c-0.5,0-0.9-0.4-0.9-0.9v-15.8c0-0.5,0.4-0.9,0.9-0.9s0.9,0.4,0.9,0.9v15.8
			C100.1,812.7,99.7,813.1,99.3,813.1z"/>
		<path class="st15" d="M107.1,805.2H91.4c-0.5,0-0.9-0.4-0.9-0.9c0-0.5,0.4-0.9,0.9-0.9h15.8c0.5,0,0.9,0.4,0.9,0.9
			C108,804.9,107.6,805.2,107.1,805.2z"/>
	</g>
	<g id="_03_Login_1_" class="st19">
		<path class="st15" d="M181.6,719.1c-0.9,0-1.6-0.7-1.6-1.6v-29c0-0.9,0.7-1.6,1.6-1.6c0.9,0,1.6,0.7,1.6,1.6v29
			C183.2,718.4,182.5,719.1,181.6,719.1z"/>
		<path class="st15" d="M196.1,704.6h-29c-0.9,0-1.6-0.7-1.6-1.6c0-0.9,0.7-1.6,1.6-1.6h29c0.9,0,1.6,0.7,1.6,1.6
			C197.7,703.9,196.9,704.6,196.1,704.6z"/>
	</g>
	<g id="_03_Login_2_">
		<path class="st15" d="M479.6,324.1c-0.9,0-1.6-0.7-1.6-1.6v-29c0-0.9,0.7-1.6,1.6-1.6c0.9,0,1.6,0.7,1.6,1.6v29
			C481.2,323.4,480.5,324.1,479.6,324.1z"/>
		<path class="st15" d="M494.1,309.6h-29c-0.9,0-1.6-0.7-1.6-1.6s0.7-1.6,1.6-1.6h29c0.9,0,1.6,0.7,1.6,1.6S494.9,309.6,494.1,309.6
			z"/>
	</g>
</g>
</svg>
